<svg width="138" height="45" viewBox="0 0 138 45" fill="none" xmlns="http://www.w3.org/2000/svg">
<path d="M15.375 27.2656C15.375 27 14.8125 26.6094 13.6875 26.0938C12.5469 25.5625 11.9766 24.9141 11.9766 24.1484C11.9766 23.6016 12.0938 22.9844 12.3281 22.2969C12.5781 21.5938 12.875 20.9297 13.2188 20.3047C13.2812 20.1953 13.375 20.1172 13.5 20.0703C13.6406 20.0234 13.7734 20 13.8984 20C14.0391 20 14.1641 20.0234 14.2734 20.0703C14.3828 20.1172 14.4453 20.1953 14.4609 20.3047C14.4609 20.5234 14.6328 20.7422 14.9766 20.9609C15.3359 21.1797 15.6953 21.4219 16.0547 21.6875C16.4141 21.9375 16.6719 22.2266 16.8281 22.5547C16.9844 22.9141 17.0625 23.4453 17.0625 24.1484C17.0625 25.1797 16.9297 26.2344 16.6641 27.3125C16.3984 28.3594 15.9062 29.6562 15.1875 31.2031C14.0469 33.5938 12.5 35.5 10.5469 36.9219C9.82812 37.375 9.125 37.7188 8.4375 37.9531C7.6875 38.2031 6.88281 38.3281 6.02344 38.3281C4.00781 38.3281 2.46094 37.5781 1.38281 36.0781C0.460938 34.7969 0 33.1562 0 31.1562C0 30.2656 0.1875 29.1016 0.5625 27.6641C0.9375 26.2734 1.32812 25.0703 1.73438 24.0547C2.17188 23.0078 2.54688 22.125 2.85938 21.4062C2.95312 21.2344 3.08594 20.9766 3.25781 20.6328C3.42969 20.2734 3.64844 19.8125 3.91406 19.25C4.10156 18.9062 4.26562 18.5938 4.40625 18.3125C4.5625 18.0312 4.6875 17.7812 4.78125 17.5625C5.01562 17.1406 5.19531 16.9375 5.32031 16.9531C5.49219 16.9844 5.53906 17.1641 5.46094 17.4922C5.38281 17.8828 5.28125 18.2188 5.15625 18.5C4.04688 21.0625 3.28125 22.8516 2.85938 23.8672C2.125 25.7266 1.75781 27.1641 1.75781 28.1797C1.75781 30.1016 2.35156 31.4766 3.53906 32.3047C4.41406 32.8828 5.54688 33.1719 6.9375 33.1719C9.4375 33.1719 11.5312 32.4688 13.2188 31.0625C14.6562 29.8594 15.375 28.5938 15.375 27.2656ZM20.0859 18.5C19.9609 18.5156 19.8438 18.5 19.7344 18.4531C19.625 18.4062 19.5078 18.3438 19.3828 18.2656C19.1172 18.0938 18.8984 17.9844 18.7266 17.9375C17.9609 17.7812 17.2031 17.9531 16.4531 18.4531C15.7188 18.9375 15.0625 19.6484 14.4844 20.5859C14.4219 20.6641 14.3203 20.7109 14.1797 20.7266C14.0391 20.7578 13.8906 20.7656 13.7344 20.75C13.5781 20.75 13.4375 20.7266 13.3125 20.6797C13.1875 20.6484 13.1172 20.6172 13.1016 20.5859C13.6641 19.6953 14.3203 18.8281 15.0703 17.9844C15.8359 17.1406 16.5781 16.5391 17.2969 16.1797C18.0156 15.8047 18.9453 15.5547 20.0859 15.4297L20.3438 16.0625C20.4219 16.2969 20.4609 16.5391 20.4609 16.7891C20.4609 17.0703 20.4219 17.3672 20.3438 17.6797C20.1875 18.1641 20.1016 18.4375 20.0859 18.5ZM9.70312 5.53906C9.70312 5.33594 10.0234 4.63281 10.6641 3.42969C11.3047 2.22656 11.6953 1.625 11.8359 1.625C12.1016 1.51562 12.4922 1.71094 13.0078 2.21094C13.5078 2.69531 13.8906 3.125 14.1562 3.5C14.4688 2.98438 14.8125 2.40625 15.1875 1.76562C15.5781 1.125 15.8359 0.804688 15.9609 0.804688C16.3516 0.804688 16.8125 1.09375 17.3438 1.67188C17.8906 2.23438 18.1797 2.76562 18.2109 3.26562C18.2109 3.85938 17.9219 4.5625 17.3438 5.375C16.7812 6.17188 16.3672 6.57031 16.1016 6.57031C15.9297 6.57031 15.6172 6.34375 15.1641 5.89062C14.7109 5.4375 14.3125 5.08594 13.9688 4.83594C13.125 6.53906 12.4531 7.39062 11.9531 7.39062C11.8281 7.39062 11.6484 7.28906 11.4141 7.08594C11.1953 6.89844 10.8594 6.61719 10.4062 6.24219C9.9375 5.86719 9.70312 5.63281 9.70312 5.53906ZM27.5391 14.5C27.3047 14.7344 27.0859 14.9297 26.8828 15.0859C26.4922 15.3203 26.2812 15.4453 26.25 15.4609L25.5703 15.7422C25.4453 15.8359 25.3203 15.9297 25.1953 16.0234C25.0703 16.1172 24.9531 16.2109 24.8438 16.3047C24.5469 16.4922 24.3516 16.5938 24.2578 16.6094C24.1953 16.625 24.0859 16.6562 23.9297 16.7031C23.8672 16.7188 23.7969 16.7656 23.7188 16.8438C23.4531 17.1094 23.1484 17.3203 22.8047 17.4766L22.1719 17.6641C21.7812 17.8359 21.4844 18.0234 21.2812 18.2266C21.0156 18.4609 20.8203 18.6172 20.6953 18.6953C20.5078 18.8047 20.3125 18.8594 20.1094 18.8594C19.7969 18.3438 19.6484 17.8281 19.6641 17.3125C19.6797 16.8125 19.8281 16.3047 20.1094 15.7891L21.1172 16.0234C21.4922 16.1328 21.8672 15.9453 22.2422 15.4609C22.6172 14.9766 22.8359 14.7109 22.8984 14.6641C23.0078 14.5859 23.0938 14.6016 23.1562 14.7109C23.1875 14.7734 23.2422 14.8281 23.3203 14.875C23.6484 15.0312 23.9375 14.8828 24.1875 14.4297C24.4375 13.9609 24.6094 13.7266 24.7031 13.7266C24.7656 13.7266 24.8438 13.7656 24.9375 13.8438C25.0312 13.9062 25.1484 13.9219 25.2891 13.8906C25.4453 13.8594 25.6094 13.7266 25.7812 13.4922C25.9688 13.2422 26.1016 13.0391 26.1797 12.8828C26.2578 12.7266 26.3438 12.625 26.4375 12.5781C26.5938 12.7031 26.7734 12.7656 26.9766 12.7656C27.0703 12.7656 27.2578 12.6875 27.5391 12.5312C27.5547 12.5938 27.6172 12.7734 27.7266 13.0703C27.7734 13.2578 27.7969 13.3828 27.7969 13.4453C27.7969 13.5703 27.7812 13.7578 27.75 14.0078C27.7031 14.1797 27.6328 14.3438 27.5391 14.5ZM27.5625 12.5312C27.4219 12.8594 27.3672 13.1875 27.3984 13.5156C27.4297 13.8438 27.4844 14.1719 27.5625 14.5C28.1094 13.9844 28.7031 13.1719 29.3438 12.0625C29.9531 10.9844 30.2734 10.0156 30.3047 9.15625C30.3359 8.03125 30.3516 7.39844 30.3516 7.25781C30.3516 6.69531 30.3594 6.25781 30.375 5.94531C30.3906 5.49219 30.3672 5.24219 30.3047 5.19531C30.1953 5.14844 30.0781 5.23438 29.9531 5.45312C29.4844 6.42188 29.1172 7.14844 28.8516 7.63281C28.4453 8.32031 28.2422 8.86719 28.2422 9.27344C28.2422 9.80469 28.2422 10.2422 28.2422 10.5859C28.2422 10.9141 28.2422 11.1484 28.2422 11.2891C28.2422 11.4922 28.2031 11.7109 28.125 11.9453C28.0156 12.1797 27.8281 12.375 27.5625 12.5312ZM22.6406 38.3359C22.6406 38.1484 22.9609 37.4297 23.6016 36.1797C24.2266 34.9453 24.6094 34.3281 24.75 34.3281C25 34.3281 25.3828 34.5547 25.8984 35.0078C26.4141 35.4766 26.7578 35.9062 26.9297 36.2969C27.2578 35.75 27.5703 35.2109 27.8672 34.6797C28.3047 33.9141 28.5781 33.5312 28.6875 33.5312C29.0469 33.5312 29.4922 33.7969 30.0234 34.3281C30.5703 34.9375 30.8438 35.4922 30.8438 35.9922C30.8438 36.5703 30.5703 37.2891 30.0234 38.1484C29.4922 38.9766 29.1016 39.3906 28.8516 39.3906C28.6641 39.3906 28.3906 39.1953 28.0312 38.8047C27.5312 38.2578 27.1172 37.8594 26.7891 37.6094C25.9766 39.3594 25.3359 40.2344 24.8672 40.2344C24.7578 40.2344 24.3594 39.9453 23.6719 39.3672C22.9844 38.7891 22.6406 38.4453 22.6406 38.3359ZM24.8438 42.7188C24.8594 42.5625 25.1719 41.9375 25.7812 40.8438C26.3906 39.7656 26.7656 39.2344 26.9062 39.25C27.2812 39.2812 27.6875 39.5703 28.125 40.1172C28.5781 40.6641 28.7891 41.1875 28.7578 41.6875C28.7266 42.2344 28.4688 42.9062 27.9844 43.7031C27.4844 44.4688 27.1406 44.8516 26.9531 44.8516C26.8281 44.8359 26.6797 44.7188 26.5078 44.5C26.2734 44.2656 26.0312 44.0156 25.7812 43.75C25.5781 43.5781 25.375 43.3984 25.1719 43.2109C24.9531 43.0234 24.8438 42.8594 24.8438 42.7188ZM52.9922 20.5859C52.9922 21.6016 52.8438 22.8281 52.5469 24.2656C52.2656 25.7031 51.9531 26.875 51.6094 27.7812C51.0312 29.2812 50.4062 30.5938 49.7344 31.7188C49.25 32.4844 48.6562 33.3125 47.9531 34.2031C46.6094 35.9062 45.2969 37.1406 44.0156 37.9062C42.4844 38.8281 40.7734 39.2891 38.8828 39.2891C36.8984 39.2891 35.375 38.6016 34.3125 37.2266C33.3906 36.0078 32.9297 34.4375 32.9297 32.5156C32.9297 31.6562 33.0312 30.6719 33.2344 29.5625C33.4531 28.4375 33.8047 27.2891 34.2891 26.1172C34.7891 24.9453 35.7266 23.2578 37.1016 21.0547C37.2266 20.8359 37.3516 20.6328 37.4766 20.4453C37.6172 20.2422 37.7344 20.1875 37.8281 20.2812C38.0469 20.4844 37.8672 21.125 37.2891 22.2031C36.8516 22.9688 36.5469 23.5156 36.375 23.8438C35.9375 24.7969 35.5547 25.8047 35.2266 26.8672C34.9141 27.9141 34.7578 28.7422 34.7578 29.3516C34.7578 31.1797 35.3359 32.4766 36.4922 33.2422C37.3828 33.8516 38.6719 34.1562 40.3594 34.1562C41.8125 34.1562 43.125 33.9141 44.2969 33.4297C46.0625 32.7266 47.6016 31.5156 48.9141 29.7969C49.5234 28.9531 50.0391 28 50.4609 26.9375C50.8984 25.8594 51.1172 24.8281 51.1172 23.8438C51.1172 23.2656 51.0234 22.8516 50.8359 22.6016C50.6484 22.3359 50.4062 22.1875 50.1094 22.1562C49.7656 22.25 49.4766 22.2969 49.2422 22.2969C48.7734 22.2969 48.3828 22.1641 48.0703 21.8984C47.7734 21.6172 47.6562 21.2578 47.7188 20.8203C47.8125 20.3984 48.0156 19.8359 48.3281 19.1328C48.5312 18.7422 48.7422 18.3359 48.9609 17.9141C49.1797 17.4766 49.3906 17.1328 49.5938 16.8828C49.9375 16.4609 50.2734 16.25 50.6016 16.25C51.3047 16.25 51.875 16.6562 52.3125 17.4688C52.7656 18.2656 52.9922 19.3047 52.9922 20.5859ZM40.1484 7.03906C40.1484 6.83594 40.4766 6.10938 41.1328 4.85938C41.8047 3.59375 42.2188 2.96094 42.375 2.96094C42.6562 2.83594 43.0625 3.03125 43.5938 3.54688C44.125 4.0625 44.5312 4.51562 44.8125 4.90625C45.125 4.375 45.4844 3.77344 45.8906 3.10156C46.2969 2.42969 46.5625 2.09375 46.6875 2.09375C47.0938 2.09375 47.5781 2.39062 48.1406 2.98438C48.7188 3.57812 49.0234 4.14062 49.0547 4.67188C49.0547 5.29688 48.75 6.03125 48.1406 6.875C47.5469 7.70312 47.1094 8.11719 46.8281 8.11719C46.6562 8.11719 46.3281 7.88281 45.8438 7.41406C45.375 6.94531 44.9609 6.57812 44.6016 6.3125C43.7266 8.09375 43.0234 8.98438 42.4922 8.98438C42.3672 8.98438 42.1797 8.875 41.9297 8.65625C41.6953 8.46875 41.3359 8.17969 40.8516 7.78906C40.3828 7.39844 40.1484 7.14844 40.1484 7.03906ZM61.5234 23.9141C60.9766 25.4297 60.4688 26.5469 60 27.2656C59.5312 27.9844 59.1641 28.4297 58.8984 28.6016C58.6328 28.7734 58.2344 28.9609 57.7031 29.1641C57.1719 29.3516 56.3594 29.625 55.2656 29.9844C54.1875 30.3281 53.5469 30.5 53.3438 30.5C53.2188 30.5 53.1562 30.4688 53.1562 30.4062C53.0312 30.2344 53.6797 29.6719 55.1016 28.7188C56.5234 27.7656 57.4375 27.1406 57.8438 26.8438C58.2656 26.5469 58.6875 26.1172 59.1094 25.5547C59.5469 24.9766 59.8672 24.3281 60.0703 23.6094C59.8516 23.5781 59.625 23.625 59.3906 23.75C59.1719 23.8594 58.9531 23.9141 58.7344 23.9141C58.1562 23.8984 57.6719 23.7109 57.2812 23.3516C56.8906 22.9922 56.7266 22.5938 56.7891 22.1562C56.8516 21.8906 56.9375 21.5859 57.0469 21.2422C57.1719 20.8828 57.4219 20.3203 57.7969 19.5547C58.1719 18.7891 58.5469 18.1562 58.9219 17.6562C59.3125 17.1562 59.6953 16.9062 60.0703 16.9062C60.7109 16.9062 61.2422 17.1797 61.6641 17.7266C62.1016 18.2734 62.3203 18.9297 62.3203 19.6953C62.3203 20.0859 62.2969 20.4766 62.25 20.8672C62.2031 21.2422 62.1484 21.5625 62.0859 21.8281C62.0391 22.0781 61.9609 22.4062 61.8516 22.8125C61.7578 23.2031 61.6484 23.5703 61.5234 23.9141ZM67.0547 28.8594C66.7266 29.2656 66.4453 29.5547 66.2109 29.7266C65.8984 29.9453 65.5781 30.125 65.25 30.2656C64.9375 30.3906 64.5859 30.4922 64.1953 30.5703C63.8203 30.6641 63.4453 30.7578 63.0703 30.8516L61.5234 31.2266C60.8984 31.3359 60.5156 31.3516 60.375 31.2734C60.375 31.0547 60.6328 30.7812 61.1484 30.4531C61.6172 30.1562 62.0938 29.8594 62.5781 29.5625C63.0625 29.25 63.5469 28.9453 64.0312 28.6484C65.2656 27.7891 66.1875 26.9844 66.7969 26.2344C67.2656 25.6562 67.6328 25.1484 67.8984 24.7109C68.0703 24.4609 68.3281 24.0312 68.6719 23.4219L69.6797 21.3594C69.9141 20.875 70.1406 20.4844 70.3594 20.1875C70.5625 19.8906 70.75 19.75 70.9219 19.7656C71.0781 19.8438 71.125 20 71.0625 20.2344C70.8906 20.75 70.7812 21.0859 70.7344 21.2422C70.4844 22.0703 70.3594 22.6484 70.3594 22.9766C70.2656 23.2578 70.2031 23.4375 70.1719 23.5156C69.7969 24.3594 69.4062 25.1562 69 25.9062C68.875 26.2031 68.2266 27.1875 67.0547 28.8594ZM78.5156 25.6016C78.0469 25.5234 77.6953 25.5234 77.4609 25.6016C76.6484 25.8672 75.8125 26.75 74.9531 28.25C74.0312 29.75 73 30.5 71.8594 30.5C70.7031 30.4062 69.8281 29.8828 69.2344 28.9297C68.6406 27.9766 68.3359 26.8047 68.3203 25.4141C68.5859 24.5078 68.8828 23.7266 69.2109 23.0703C69.5391 22.3984 69.9219 21.9375 70.3594 21.6875C70.3594 23.25 70.7422 24.3828 71.5078 25.0859C72.0859 25.6016 72.7578 25.8594 73.5234 25.8594C74.5859 25.8594 75.4609 25.3906 76.1484 24.4531C76.6641 23.7656 77.1016 23.2734 77.4609 22.9766C77.8359 22.6797 78.1875 22.5312 78.5156 22.5312C78.5469 22.5938 78.6016 22.8203 78.6797 23.2109C78.7578 23.5859 78.7969 23.9219 78.7969 24.2188C78.7969 24.5312 78.7656 24.7891 78.7031 24.9922C78.6562 25.1797 78.5938 25.3828 78.5156 25.6016ZM73.4062 12.0547C73.4062 11.7109 73.6953 10.9688 74.2734 9.82812C74.8672 8.67188 75.25 8.09375 75.4219 8.09375C75.7656 7.95312 76.2656 8.21875 76.9219 8.89062C77.5781 9.54688 77.9297 10.0625 77.9766 10.4375C77.9766 10.9375 77.7031 11.6562 77.1562 12.5938C76.6094 13.5312 76.2109 14 75.9609 14C75.8672 13.9531 75.5391 13.75 74.9766 13.3906C74.4297 13.0156 74.0234 12.7344 73.7578 12.5469C73.5234 12.3906 73.4062 12.2266 73.4062 12.0547ZM91.125 16.3359C91.125 17.5547 90.7422 18.8203 89.9766 20.1328C89.2109 21.4766 88.2812 22.5156 87.1875 23.25C86.7812 23.5625 86.3047 23.7812 85.7578 23.9062C85.1328 24.0781 84.5391 24.1641 83.9766 24.1641C83.2578 24.1641 82.7188 24.0547 82.3594 23.8359C82.0469 23.6641 81.8281 23.4844 81.7031 23.2969C81.5781 23.1406 81.4922 23.0625 81.4453 23.0625C81.3359 23.0625 81.1797 23.1953 80.9766 23.4609C80.8359 23.6484 80.4922 24.1328 79.9453 24.9141C79.6797 25.2891 79.4219 25.4922 79.1719 25.5234C78.9062 25.5859 78.6875 25.5781 78.5156 25.5C78.3594 24.9844 78.2812 24.4766 78.2812 23.9766C78.2656 23.4609 78.3438 22.9453 78.5156 22.4297C78.6406 22.4609 78.8359 22.5156 79.1016 22.5938C79.3672 22.6562 79.5703 22.6875 79.7109 22.6875C80.1016 22.6875 80.5547 22.3359 81.0703 21.6328C81.6016 20.7578 81.9766 20.3203 82.1953 20.3203C82.2891 20.3203 82.4688 20.3672 82.7344 20.4609C82.9844 20.5547 83.2422 20.6016 83.5078 20.6016C83.7109 20.6016 83.9453 20.4141 84.2109 20.0391C85.2266 18.6172 85.8984 17.6875 86.2266 17.25C86.7734 16.4844 87.3438 15.8516 87.9375 15.3516C88.5 14.8672 89 14.625 89.4375 14.625C89.9219 14.625 90.3203 14.7812 90.6328 15.0938C90.9609 15.4219 91.125 15.8359 91.125 16.3359ZM89.9531 17.7422C89.8594 17.6172 89.6797 17.4766 89.4141 17.3203C89.1641 17.1484 88.8203 17.0781 88.3828 17.1094C87.7422 17.1094 87.0234 17.6406 86.2266 18.7031C85.9922 19.0312 85.75 19.3516 85.5 19.6641C85.2656 19.9766 85.0312 20.2891 84.7969 20.6016C85.1406 20.6484 85.625 20.6094 86.25 20.4844C86.875 20.3594 87.6172 20.0391 88.4766 19.5234C89.3359 18.9922 89.8281 18.3984 89.9531 17.7422Z" fill="#233D9A"/>
<path d="M123 32.5625H116.75C112.188 32.5625 109.562 29.9375 109.562 25.375V16.625C109.562 12.0625 112.188 9.4375 116.75 9.4375H129.25C133.812 9.4375 136.438 12.0625 136.438 16.625V20.375C136.438 20.8875 136.013 21.3125 135.5 21.3125C134.987 21.3125 134.562 20.8875 134.562 20.375V16.625C134.562 13.05 132.825 11.3125 129.25 11.3125H116.75C113.175 11.3125 111.438 13.05 111.438 16.625V25.375C111.438 28.95 113.175 30.6875 116.75 30.6875H123C123.512 30.6875 123.938 31.1125 123.938 31.625C123.938 32.1375 123.512 32.5625 123 32.5625Z" fill="#233D9A"/>
<path d="M122.999 22.0875C121.949 22.0875 120.887 21.7624 120.074 21.0999L116.162 17.9749C115.762 17.6499 115.687 17.0625 116.012 16.6625C116.337 16.2625 116.924 16.2 117.324 16.5125L121.237 19.6375C122.187 20.4 123.799 20.4 124.749 19.6375L128.662 16.5125C129.062 16.1875 129.649 16.25 129.974 16.6625C130.299 17.0625 130.237 17.6624 129.824 17.9749L125.912 21.0999C125.112 21.7624 124.049 22.0875 122.999 22.0875Z" fill="#233D9A"/>
<path d="M127.775 33.225C127.3 33.225 126.85 33.05 126.525 32.725C126.138 32.3375 125.963 31.775 126.05 31.1875L126.288 29.5C126.35 29.0625 126.613 28.5375 126.925 28.225L131.35 23.8C131.95 23.2 132.538 22.8875 133.175 22.825C133.95 22.75 134.725 23.075 135.45 23.8C136.175 24.525 136.5 25.2875 136.425 26.075C136.363 26.7 136.038 27.3 135.45 27.9L131.025 32.325C130.713 32.6375 130.188 32.9 129.75 32.9625L128.063 33.2C127.963 33.2125 127.875 33.225 127.775 33.225ZM133.388 24.6875C133.375 24.6875 133.363 24.6875 133.35 24.6875C133.175 24.7 132.938 24.8625 132.675 25.125L128.25 29.55C128.213 29.5875 128.15 29.7125 128.15 29.7625L127.925 31.325L129.488 31.1C129.538 31.0875 129.663 31.025 129.7 30.9875L134.125 26.5625C134.388 26.2875 134.55 26.0625 134.563 25.8875C134.588 25.6375 134.338 25.3375 134.125 25.125C133.925 24.925 133.638 24.6875 133.388 24.6875Z" fill="#233D9A"/>
<path d="M134.15 28.8124C134.062 28.8124 133.975 28.7999 133.9 28.7749C132.25 28.3124 130.937 26.9999 130.475 25.3499C130.337 24.8499 130.625 24.3374 131.125 24.1874C131.625 24.0499 132.137 24.3374 132.275 24.8374C132.562 25.8624 133.375 26.6749 134.4 26.9624C134.9 27.0999 135.187 27.6249 135.05 28.1249C134.937 28.5374 134.562 28.8124 134.15 28.8124Z" fill="#233D9A"/>
</svg>
